<?xml version="1.0" standalone="no"?>
<!DOCTYPE svg PUBLIC "-//W3C//DTD SVG 20010904//EN"
 "http://www.w3.org/TR/2001/REC-SVG-20010904/DTD/svg10.dtd">
<svg version="1.0" xmlns="http://www.w3.org/2000/svg"
 width="225.000000pt" height="225.000000pt" viewBox="0 0 225.000000 225.000000"
 preserveAspectRatio="xMidYMid meet">

<g transform="translate(0.000000,225.000000) scale(0.100000,-0.100000)"
fill="#000000" stroke="none">
<path d="M1055 2241 c-87 -23 -168 -92 -207 -176 -22 -48 -23 -62 -26 -342
l-4 -291 -291 -4 c-279 -3 -294 -4 -342 -26 -63 -29 -119 -83 -153 -147 -38
-72 -38 -188 0 -260 34 -64 90 -118 153 -147 48 -22 62 -23 342 -26 l291 -4 4
-291 c3 -278 5 -294 26 -343 107 -238 447 -238 554 0 21 49 23 65 26 343 l4
291 291 4 c330 4 342 6 430 87 124 114 124 318 0 432 -88 81 -100 84 -430 87
l-291 4 -4 291 c-3 279 -4 294 -26 342 -48 104 -145 173 -255 180 -34 2 -75 1
-92 -4z m164 -160 c64 -46 65 -52 71 -409 l5 -324 33 -29 32 -29 308 0 c344 0
365 -4 413 -71 34 -48 34 -140 1 -187 -47 -65 -53 -66 -409 -72 l-323 -5 -27
-28 -28 -27 -5 -323 c-6 -356 -7 -362 -72 -409 -26 -18 -46 -23 -93 -23 -47 0
-67 5 -93 23 -66 47 -66 53 -72 410 l-5 324 -33 29 -32 29 -308 0 c-344 0
-365 4 -413 71 -34 48 -34 140 -1 187 47 65 53 66 409 72 l323 5 27 28 28 27
5 323 c4 281 7 326 22 354 17 30 54 62 88 76 32 13 117 1 149 -22z"/>
</g>
</svg>
